<?xml version="1.0" encoding="utf-8"?>
<!-- Svg Vector Icons : http://www.onlinewebfonts.com/icon -->
<!DOCTYPE svg PUBLIC "-//W3C//DTD SVG 1.1//EN" "http://www.w3.org/Graphics/SVG/1.1/DTD/svg11.dtd">
<svg version="1.1" xmlns="http://www.w3.org/2000/svg" xmlns:xlink="http://www.w3.org/1999/xlink" x="0px" y="0px" viewBox="0 0 1000 1000" enable-background="new 0 0 1000 1000" xml:space="preserve">
<metadata> Svg Vector Icons : http://www.onlinewebfonts.com/icon </metadata>
<g><g transform="translate(0.000000,511.000000) scale(0.100000,-0.100000)"><path d="M3779.4,4981.3c-217.2-48.1-405.6-142.2-582.5-292.2c-109.6-94.2-276.8-317.2-315.3-419.1c-13.5-38.4-48.1-78.8-90.3-103.8c-290.3-165.3-522.9-474.8-619-818.9c-44.2-157.6-61.5-478.6-30.8-590.1c11.5-48.1,3.8-55.8-126.9-126.9c-490.2-273-828.5-692-982.3-1220.7c-48.1-165.3-96.1-507.5-84.6-617.1c1.9-38.4-19.2-105.7-65.4-194.2C699.8,244.7,624.9-101.3,642.1-512.7c19.2-505.6,174.9-924.6,476.7-1299.5l100-123l-25-136.5c-32.7-178.8-28.8-440.2,7.7-592.1c17.3-65.3,71.1-203.8,121.1-303.7c75-151.9,117.3-209.5,253.7-346c90.4-90.4,205.7-184.5,253.8-211.5c82.7-42.3,92.3-53.8,111.5-146.1c67.3-299.9,290.3-599.8,603.6-813.2c459.4-313.3,1180.3-396,1697.4-196.1c286.4,111.5,569,351.8,692,588.2c30.8,57.7,59.6,105.7,65.4,105.7c5.8,0,34.6-48.1,65.3-105.7c73.1-142.3,269.1-349.9,422.9-449.8c636.3-415.2,1659-296,2210.7,257.6c176.8,174.9,313.3,411.4,359.4,615.1c19.2,90.4,30.8,101.9,111.5,144.2c48.1,26.9,161.5,121.1,251.8,211.5c188.4,186.5,298,372.9,367.1,624.8c48.1,180.7,53.8,474.8,11.6,647.8c-26.9,107.6-26.9,111.5,19.2,153.8c82.7,75,292.2,407.5,363.3,572.8c111.5,255.7,163.4,492.1,175,790.1c17.3,417.1-59.6,772.8-246.1,1132.3c-48.1,94.2-71.1,159.5-63.4,186.5c19.2,69.2-28.8,440.2-80.7,617.1c-150,526.7-538.2,995.8-1022.7,1241.8c-101.9,51.9-101.9,51.9-86.5,123c28.8,130.7,11.5,411.4-30.8,570.9c-94.2,342.2-328.7,653.6-619,818.9c-42.3,25-76.9,65.4-90.4,103.8c-13.5,34.6-65.4,123-117.3,196.1c-219.1,311.4-572.8,511.3-951.5,538.3c-396,26.9-728.5-121.1-920.8-411.4c-46.1-71.1-92.3-149.9-98-173c-7.7-25-19.2-44.2-26.9-44.2c-7.7,0-44.2,57.7-80.7,128.8C4723.2,4894.8,4259.9,5087,3779.4,4981.3z M4235,4777.5c240.3-51.9,417.1-190.3,524.8-407.5c132.6-273,124.9-15.4,124.9-4190.6c0-4184.9,9.6-3888.8-130.7-4154.1c-136.5-263.3-394.1-457.5-724.7-553.6c-126.9-34.6-199.9-42.3-422.9-42.3c-332.6,0-507.5,40.4-797.8,182.6c-169.2,84.6-224.9,124.9-355.6,255.7c-315.3,319.1-399.8,663.2-267.2,1089.9c57.7,184.6,159.5,342.2,317.2,488.3c151.9,140.3,311.4,228.8,509.4,278.7c298,76.9,490.2,40.4,653.6-125c75-75,107.7-126.9,134.6-211.5c38.4-119.2,96.1-174.9,161.5-153.8c69.2,21.1,82.7,76.9,48.1,198c-38.4,136.5-136.5,288.3-238.4,371l-78.8,61.5l103.8,100c107.7,101.9,184.5,230.7,223,371c17.3,71.1,17.3,92.3-9.6,130.7c-61.5,94.2-165.3,38.4-209.5-113.4c-36.5-128.8-142.3-249.9-267.2-315.3c-76.9-38.4-142.3-51.9-303.7-65.3c-384.5-30.8-647.8-150-913.1-411.4c-126.9-126.9-171.1-186.5-244.1-336.4c-94.2-188.4-148-365.2-148-474.8c0-34.6-7.7-63.4-15.4-63.4c-38.4,0-203.8,149.9-286.4,257.6c-180.7,240.3-246.1,453.7-230.7,770.8c11.5,257.6,55.7,396,188.4,595.9c101.9,151.9,111.5,190.3,61.5,244.1c-71.1,78.8-144.2,34.6-263.3-163.4l-67.3-113.4l-88.4,121.1c-357.5,486.4-469,1184.1-284.5,1776.2c26.9,84.6,53.8,161.5,63.4,169.2c7.7,9.6,25-26.9,38.4-82.7c26.9-107.6,86.5-165.3,153.8-144.2c75,23.1,82.7,76.9,40.4,236.4c-174.9,653.6-3.8,1311,461.4,1776.2c121.1,121.1,303.7,253.7,455.6,330.6l63.4,32.7l28.8-73.1c119.2-286.4,453.7-607.4,740.1-709.3l98-36.5l-13.5-117.3c-21.1-205.7,51.9-494,159.5-620.9c46.1-55.7,63.4-63.4,105.7-51.9c90.4,21.1,100,90.4,32.7,228.8c-78.8,163.4-103.8,315.3-78.8,459.4c46.1,259.5,196.1,459.4,430.6,569c136.5,65.4,171.1,117.3,128.8,194.2c-26.9,53.8-109.6,51.9-223-1.9c-178.8-82.7-313.3-207.6-451.7-419.1l-30.8-46.1l-142.2,69.2c-249.9,125-430.6,305.6-544,544c-84.6,174.9-113.4,309.5-113.4,509.4c0,196.1,44.2,369.1,132.6,540.2c65.4,124.9,244.1,344.1,278.7,344.1c9.6,0,17.3-76.9,17.3-173c0-148,5.8-178.8,38.4-211.5c46.1-46.1,73-48.1,130.7-7.7c38.5,26.9,42.3,44.2,42.3,213.4c0,332.5,92.3,561.3,317.2,784.3C3554.4,4737.1,3904.3,4846.7,4235,4777.5z M6218.8,4760.2c205.7-51.9,324.9-121.1,482.5-278.7c226.8-224.9,317.2-447.9,317.2-782.4c0-171.1,3.9-188.4,42.3-215.3c57.7-40.4,84.6-38.4,130.7,7.7c32.7,32.7,38.4,63.4,38.4,211.5c0,96.1,7.7,173,17.3,173c34.6,0,213.4-219.2,278.7-344.1c92.3-178.8,130.7-342.2,130.7-559.4c-1.9-442.1-246.1-830.4-647.8-1032.3c-148-75-151.9-75-219.2,30.8c-84.6,132.6-244.1,276.8-382.5,346c-140.3,71.1-223,76.9-253.8,19.2c-42.3-76.9-7.7-128.8,128.8-194.2c228.7-107.6,384.5-309.5,430.6-561.3c26.9-146.1,0-303.7-78.8-465.2c-46.1-98-53.8-130.7-38.4-169.2c23.1-65.4,103.8-84.6,153.8-40.4c107.6,98,203.8,434.5,182.6,644l-11.5,125l92.3,32.7c278.7,98,569,369.1,717,667l59.6,117.3l92.3-48.1c51.9-25,163.4-98,248-163.4c584.4-440.2,834.3-1193.8,636.3-1926.2c-42.3-159.6-34.6-213.4,40.4-236.4c67.3-21.1,126.9,36.5,153.8,144.2c13.5,55.8,30.7,92.3,38.4,82.7c30.8-30.8,111.5-326.8,136.5-484.4c32.7-236.4,13.5-582.5-50-809.3c-59.6-219.2-184.5-484.4-307.6-651.7l-88.4-121.1l-67.3,113.4c-119.2,196.1-182.6,236.4-261.4,165.3c-53.8-48.1-42.3-94.2,59.6-246c132.6-199.9,176.8-338.3,188.4-595.9c15.4-317.2-50-530.6-230.7-770.8c-82.7-107.7-248-257.6-286.4-257.6c-7.7,0-15.4,28.8-15.4,63.4c0,109.6-53.8,286.4-146.1,471c-71.1,146.1-117.3,209.5-244.1,336.4c-265.3,265.3-528.6,384.5-915,415.2c-244.1,19.2-353.7,63.4-463.3,188.4c-40.4,48.1-88.4,130.7-105.7,184.5c-50,155.7-138.4,209.5-211.5,128.8c-32.7-36.5-32.7-44.2-1.9-155.7c40.4-148,136.5-297.9,242.2-382.5l80.8-63.4l-86.5-73c-107.7-94.2-194.2-226.9-234.5-367.2c-34.6-121.1-21.2-176.8,48.1-198c65.4-21.1,123,34.6,161.5,153.8c71.1,224.9,280.7,374.9,528.6,374.9c148,0,380.6-61.5,526.7-138.4c253.8-134.6,484.4-417.1,567.1-688.2c123-411.4,34.6-757.4-274.9-1066.9c-128.8-128.8-186.5-171.1-355.6-255.7c-292.2-146.1-446-182.6-788.2-184.6c-234.5,0-301.8,5.8-432.5,42.3c-332.6,96.1-586.3,288.3-724.7,551.7c-140.3,271-130.7-53.8-130.7,4154.1c0,3706.2,1.9,3788.9,38.4,3944.6c21.1,86.5,59.6,198,84.6,249.9C5415.2,4717.9,5793.9,4869.8,6218.8,4760.2z"/><path d="M2026.2,164c-55.7-57.7-5.8-190.3,73.1-190.3c63.4,0,274.9-121.1,359.5-205.7c138.4-138.4,201.8-284.5,211.5-486.3c5.8-130.7-1.9-186.5-32.7-276.8c-51.9-148-51.9-196.1,7.7-234.5c63.4-40.4,111.5-21.2,153.8,65.4c86.5,180.7,113.4,465.2,59.6,645.9l-28.8,92.3l86.5,36.5c223,100,532.5,117.3,799.7,44.2c125-32.7,130.7-32.7,169.2,1.9c48.1,42.3,50,109.6,5.8,148c-96.1,84.6-501.7,136.5-745.9,94.2c-73-13.4-196.1-48.1-271-76.9L2735.6-232l-55.8,71.1c-80.7,107.6-211.5,209.6-342.2,271.1C2199.2,175.5,2060.8,198.6,2026.2,164z"/><path d="M7748.9,665.7c-26.9-26.9-38.4-63.4-38.4-121.1c0-188.4-138.4-534.4-276.8-694l-65.3-76.9l-78.8,51.9c-142.2,94.2-267.2,132.6-467.1,144.2c-209.5,9.6-284.5-15.4-284.5-100c0-78.8,51.9-101.9,249.9-111.5c132.7-7.7,209.5-21.1,278.7-51.9c274.9-123,451.7-397.9,451.7-701.6c0-138.4,28.8-188.4,105.7-188.4c80.7,0,105.7,48.1,105.7,203.8c0,201.8-59.6,390.2-176.8,555.5l-36.5,51.9l88.4,101.9c223,251.8,397.9,838.1,282.6,941.9C7839.3,713.8,7795.1,711.8,7748.9,665.7z"/></g></g>
</svg>