<svg xmlns="http://www.w3.org/2000/svg" xmlns:xlink="http://www.w3.org/1999/xlink" version="1.1" x="0px" y="0px" viewBox="0 0 100 100" enable-background="new 0 0 100 100" xml:space="preserve"><g><g><path d="M59.5,68.5v0.242c0,0.571,0,1.758-1.692,1.758H44.313c-1.813,0-1.813-1.186-1.813-1.758V68.5h-39l0,0c0,1.675,1.615,4,6,4    h82c3.392,0,6-2.325,6-4l0,0H59.5z"></path><path d="M84.922,20.5H16.078c-0.871,0-1.578,0.697-1.578,1.557V67.5h72V22.057C86.5,21.197,85.794,20.5,84.922,20.5z M82.5,64.5    h-64v-40h64V64.5z"></path></g></g></svg>